HIERARCHY
ROOT hip
{
  OFFSET 0 0 0
  CHANNELS 6 Xposition Yposition Zposition Zrotation Yrotation Xrotation
  JOINT abdomen
  {
    OFFSET 0 20.6881 -0.73152
    CHANNELS 3 Zrotation Xrotation Yrotation
    JOINT chest
    {
      OFFSET 0 11.7043 -0.48768
      CHANNELS 3 Zrotation Xrotation Yrotation
      JOINT neck
      {
        OFFSET 0 22.1894 -2.19456
        CHANNELS 3 Zrotation Xrotation Yrotation
        JOINT head
        {
          OFFSET -0.24384 7.07133 1.2192
          CHANNELS 3 Zrotation Xrotation Yrotation
          JOINT leftEye
          {
            OFFSET 4.14528 8.04674 8.04672
            CHANNELS 3 Zrotation Xrotation Yrotation
            End Site
            {
              OFFSET 1 0 0
            }
          }
          JOINT rightEye
          {
            OFFSET -3.6576 8.04674 8.04672
            CHANNELS 3 Zrotation Xrotation Yrotation
            End Site
            {
              OFFSET 1 0 0
            }
          }
        }
      }
      JOINT rCollar
      {
        OFFSET -2.68224 19.2634 -4.8768
        CHANNELS 3 Zrotation Xrotation Yrotation
        JOINT rShldr
        {
          OFFSET -8.77824 -1.95073 1.46304
          CHANNELS 3 Zrotation Xrotation Yrotation
          JOINT rForeArm
          {
            OFFSET -28.1742 -1.7115 0.48768
            CHANNELS 3 Zrotation Xrotation Yrotation
            JOINT rHand
            {
              OFFSET -22.5879 0.773209 7.07136
              CHANNELS 3 Zrotation Xrotation Yrotation
              JOINT rThumb1
              {
                OFFSET -1.2192 -0.487915 3.41376
                CHANNELS 3 Zrotation Xrotation Yrotation
                JOINT rThumb2
                {
                  OFFSET -3.37035 -0.52449 3.41376
                  CHANNELS 3 Zrotation Xrotation Yrotation
                  End Site
                  {
                    OFFSET -1.78271 -1.18214 1.43049
                  }
                }
              }
              JOINT rIndex1
              {
                OFFSET -7.75947 0.938293 5.60832
                CHANNELS 3 Zrotation Xrotation Yrotation
                JOINT rIndex2
                {
                  OFFSET -2.54057 -0.884171 1.56538
                  CHANNELS 3 Zrotation Xrotation Yrotation
                  End Site
                  {
                    OFFSET -1.62519 -0.234802 1.16502
                  }
                }
              }
              JOINT rMid1
              {
                OFFSET -8.24714 1.18213 3.41376
                CHANNELS 3 Zrotation Xrotation Yrotation
                JOINT rMid2
                {
                  OFFSET -3.10165 -0.590103 1.0647
                  CHANNELS 3 Zrotation Xrotation Yrotation
                  End Site
                  {
                    OFFSET -2.48547 -0.328903 0.83742
                  }
                }
              }
              JOINT rRing1
              {
                OFFSET -8.82822 0.546677 1.51678
                CHANNELS 3 Zrotation Xrotation Yrotation
                JOINT rRing2
                {
                  OFFSET -2.60934 -0.819778 -0.0198488
                  CHANNELS 3 Zrotation Xrotation Yrotation
                  End Site
                  {
                    OFFSET -2.33842 -0.294052 0.168128
                  }
                }
              }
              JOINT rPinky1
              {
                OFFSET -8.27202 -0.0477905 -0.4584
                CHANNELS 3 Zrotation Xrotation Yrotation
                JOINT rPinky2
                {
                  OFFSET -1.82734 -0.647385 -0.700984
                  CHANNELS 3 Zrotation Xrotation Yrotation
                  End Site
                  {
                    OFFSET -1.69225 -0.51767 -0.607171
                  }
                }
              }
            }
          }
        }
      }
      JOINT lCollar
      {
        OFFSET 2.68224 19.2634 -4.8768
        CHANNELS 3 Zrotation Xrotation Yrotation
        JOINT lShldr
        {
          OFFSET 8.77824 -1.95073 1.46304
          CHANNELS 3 Zrotation Xrotation Yrotation
          JOINT lForeArm
          {
            OFFSET 28.1742 -1.7115 0.48768
            CHANNELS 3 Zrotation Xrotation Yrotation
            JOINT lHand
            {
              OFFSET 22.5879 0.773209 7.07136
              CHANNELS 3 Zrotation Xrotation Yrotation
              JOINT lThumb1
              {
                OFFSET 1.2192 -0.487915 3.41376
                CHANNELS 3 Zrotation Xrotation Yrotation
                JOINT lThumb2
                {
                  OFFSET 3.37035 -0.52449 3.41376
                  CHANNELS 3 Zrotation Xrotation Yrotation
                  End Site
                  {
                    OFFSET 1.78271 -1.18214 1.43049
                  }
                }
              }
              JOINT lIndex1
              {
                OFFSET 7.75947 0.938293 5.60832
                CHANNELS 3 Zrotation Xrotation Yrotation
                JOINT lIndex2
                {
                  OFFSET 2.54057 -0.884171 1.56538
                  CHANNELS 3 Zrotation Xrotation Yrotation
                  End Site
                  {
                    OFFSET 1.62519 -0.234802 1.16502
                  }
                }
              }
              JOINT lMid1
              {
                OFFSET 8.24714 1.18213 3.41376
                CHANNELS 3 Zrotation Xrotation Yrotation
                JOINT lMid2
                {
                  OFFSET 3.10165 -0.590103 1.0647
                  CHANNELS 3 Zrotation Xrotation Yrotation
                  End Site
                  {
                    OFFSET 2.48547 -0.328903 0.83742
                  }
                }
              }
              JOINT lRing1
              {
                OFFSET 8.82822 0.546677 1.51678
                CHANNELS 3 Zrotation Xrotation Yrotation
                JOINT lRing2
                {
                  OFFSET 2.60934 -0.819778 -0.0198488
                  CHANNELS 3 Zrotation Xrotation Yrotation
                  End Site
                  {
                    OFFSET 2.33842 -0.294052 0.168128
                  }
                }
              }
              JOINT lPinky1
              {
                OFFSET 8.27202 -0.0477905 -0.4584
                CHANNELS 3 Zrotation Xrotation Yrotation
                JOINT lPinky2
                {
                  OFFSET 1.82734 -0.647385 -0.700984
                  CHANNELS 3 Zrotation Xrotation Yrotation
                  End Site
                  {
                    OFFSET 1.69225 -0.51767 -0.607171
                  }
                }
              }
            }
          }
        }
      }
    }
  }
  JOINT rButtock
  {
    OFFSET -8.77824 4.35084 1.2192
    CHANNELS 3 Zrotation Xrotation Yrotation
    JOINT rThigh
    {
      OFFSET 0 -1.70687 -2.19456
      CHANNELS 3 Zrotation Xrotation Yrotation
      JOINT rShin
      {
        OFFSET 0 -36.8199 0.73152
        CHANNELS 3 Zrotation Xrotation Yrotation
        JOINT rFoot
        {
          OFFSET 0.73152 -45.1104 -5.12064
          CHANNELS 3 Zrotation Xrotation Yrotation
          End Site
          {
            OFFSET -1.1221 -3.69964 12.103
          }
        }
      }
    }
  }
  JOINT lButtock
  {
    OFFSET 8.77824 4.35084 1.2192
    CHANNELS 3 Zrotation Xrotation Yrotation
    JOINT lThigh
    {
      OFFSET 0 -1.70687 -2.19456
      CHANNELS 3 Zrotation Xrotation Yrotation
      JOINT lShin
      {
        OFFSET 0 -36.8199 0.73152
        CHANNELS 3 Zrotation Xrotation Yrotation
        JOINT lFoot
        {
          OFFSET -0.73152 -45.1104 -5.12064
          CHANNELS 3 Zrotation Xrotation Yrotation
          End Site
          {
            OFFSET 1.1221 -3.69964 12.103
          }
        }
      }
    }
  }
}
MOTION
Frames:	4
Frame Time:	0.03333
-5.661990002931947 52.19780144866568 44.87629980957279 12.425599098205566 27.59760093688965 9.320502281188965 -21.5022029876709 11.362099647521973 5.478149890899658 6.238770008087158 -10.271300315856934 1.660480260848999 -8.721369743347168 17.8153018951416 -13.350998878479004 11.003398895263672 -28.477800369262695 -23.845497131347656 -0.0 0.0 -0.0 -0.0 0.0 -0.0 1.581159926296663e-13 -1.1479199210108482e-13 -6.471199986458898e-13 34.98990249633789 -23.119998931884766 60.48400115966797 -8.864681243896484 -3.4798200130462646 15.688797950744629 -0.9532649517059326 26.586002349853516 4.033209800720215 4.2078097950426496e-11 1.0996499710813623e-08 2.2977897362608246e-09 1.1145099426679295e-10 1.9144900775813767e-08 3.966379669151365e-09 4.208039819375564e-11 1.0996499710813623e-08 2.297779966298208e-09 7.730909824371338 5.474879741668701 0.4173140823841095 4.208229945068531e-11 1.0996499710813623e-08 2.2977897362608246e-09 2.9055399894714355 0.9651829600334167 0.10290199518203735 4.20820982227621e-11 1.0996499710813623e-08 2.2977897362608246e-09 10.27859878540039 0.73180091381073 0.025912316516041756 4.2077098749704334e-11 1.0996499710813623e-08 2.2977897362608246e-09 2.221669912338257 -0.733487069606781 -0.208919957280159 1.578290043146094e-13 -1.1478699121856423e-13 -6.474350135871054e-13 -111.15599822998047 49.54500961303711 46.9005012512207 28.164398193359375 -39.4369010925293 -82.91850280761719 5.815329551696777 -54.35099792480469 11.300300598144531 3.32357003030026e-10 6.45993980530335e-10 -8.46372971707865e-11 5.791360169205007e-10 1.1223599827303588e-09 -1.4603598885720714e-10 3.323490094242487e-10 6.459829338112399e-10 -8.462059525315979e-11 -7.730909824371338 5.474879741668701 -0.4173140823841095 3.3235600382930386e-10 6.459879298148508e-10 -8.463710288175719e-11 -2.9055399894714355 0.9651829600334167 -0.10290199518203735 3.3235400542785953e-10 6.459879298148508e-10 -8.463900413868686e-11 -10.27859878540039 0.73180091381073 -0.025912316516041756 3.3236099983291467e-10 6.459919821288906e-10 -8.464490219850518e-11 -2.221669912338257 -0.733487069606781 0.208919957280159 -2.0321699480147914e-16 0.0 -3.8825099822884138e-19 -75.35289764404297 -58.62770462036133 -63.7156982421875 -3.6463003158569336 76.83499908447266 4.045479774475098 1.091599941253662 -1.2515701055526733 8.232251167297363 2.0321699480147914e-16 0.0 3.8825099822884138e-19 11.317099571228027 15.799198150634766 -0.18833866715431213 -0.19026899337768555 29.13190269470215 -2.7743399143218994 8.209120750427246 -16.28179931640625 34.635196685791016
-5.637920002750213 52.17209944681892 44.96129980624631 12.470100402832031 27.636199951171875 9.392999649047852 -21.55080223083496 11.318699836730957 5.425989627838135 6.2469401359558105 -10.22339916229248 1.642989993095398 -8.723001480102539 17.838699340820312 -13.371201515197754 11.049699783325195 -28.56599998474121 -23.873001098632812 -0.0 0.0 -0.0 -0.0 0.0 -0.0 1.5469599884930518e-13 -2.074789857064649e-13 -5.423129935573645e-13 34.79669952392578 -23.091800689697266 60.502296447753906 -8.850449562072754 -3.473680257797241 15.662400245666504 -0.9515480995178223 26.564199447631836 4.029379844665527 9.794869360035818e-10 8.987969479790081e-09 1.043529929134479e-09 1.7068699786904062e-09 1.5480200232786956e-08 1.7792198825361538e-09 9.794860478251621e-10 8.987980137931117e-09 1.043529929134479e-09 7.730909824371338 5.474879741668701 0.4173140823841095 9.794840494237178e-10 8.987969479790081e-09 1.043529929134479e-09 2.9055399894714355 0.9651829600334167 0.10290199518203735 9.794889344050262e-10 8.987969479790081e-09 1.043529929134479e-09 10.27859878540039 0.73180091381073 0.025912316516041756 9.794830502229956e-10 8.987980137931117e-09 1.043529929134479e-09 2.221669912338257 -0.733487069606781 -0.208919957280159 1.5458199499086833e-13 -2.0747800992450965e-13 -5.425349839521809e-13 -111.16399383544922 49.58820343017578 46.932594299316406 28.158899307250977 -39.47419738769531 -82.9845962524414 5.782189846038818 -54.253997802734375 11.25949764251709 2.3358298628650687e-10 6.136030017422911e-10 -1.2859101283790864e-10 4.088749894215482e-10 1.06753994533193e-09 -2.222299982923559e-10 2.3357601963702734e-10 6.135930097350695e-10 -1.2858500375578785e-10 -7.730909824371338 5.474879741668701 -0.4173140823841095 2.3358401324280464e-10 6.136010033408468e-10 -1.2859101283790864e-10 -2.9055399894714355 0.9651829600334167 -0.10290199518203735 2.3357799028289605e-10 6.136030017422911e-10 -1.2859299736156515e-10 -10.27859878540039 0.73180091381073 -0.025912316516041756 2.335850124435268e-10 6.136059438333064e-10 -1.2860298936878678e-10 -2.221669912338257 -0.733487069606781 0.208919957280159 -2.0321699480147914e-16 0.0 -3.8825099822884138e-19 -75.59049987792969 -58.562801361083984 -63.94580078125 -3.706479787826538 77.00379943847656 4.105560302734375 1.1005799770355225 -1.3736902475357056 8.228179931640625 2.0321699480147914e-16 0.0 3.8825099822884138e-19 11.311300277709961 15.935997009277344 -0.20368452370166779 -0.19311201572418213 28.877399444580078 -2.766710042953491 8.157950401306152 -16.270599365234375 34.563594818115234
-5.621560002145899 52.14719999219964 45.03569980956532 12.506698608398438 27.63290023803711 9.482100486755371 -21.56839942932129 11.2608003616333 5.394089698791504 6.241770267486572 -10.197500228881836 1.6319599151611328 -8.714329719543457 17.856700897216797 -13.381701469421387 11.039399147033691 -28.599903106689453 -23.89609718322754 -0.0 0.0 -0.0 -0.0 0.0 -0.0 1.5518599046863285e-13 -3.080939908577107e-13 -2.784860016202817e-13 34.63140106201172 -23.06180191040039 60.513797760009766 -8.848119735717773 -3.472360372543335 15.658101081848145 -0.9504959583282471 26.550901412963867 4.027020454406738 1.860069986925339e-09 8.659820416312414e-09 2.0559298707922835e-10 3.2140798911228785e-09 1.4774600209932487e-08 3.1419797319465204e-10 1.860069986925339e-09 8.659820416312414e-09 2.0559599855918265e-10 7.730909824371338 5.474879741668701 0.4173140823841095 1.860069986925339e-09 8.659820416312414e-09 2.0559899616134913e-10 2.9055399894714355 0.9651829600334167 0.10290199518203735 1.860069986925339e-09 8.659820416312414e-09 2.0559799696062697e-10 10.27859878540039 0.73180091381073 0.025912316516041756 1.8600598838958149e-09 8.659820416312414e-09 2.056049913656821e-10 2.221669912338257 -0.733487069606781 -0.208919957280159 1.551190003269004e-13 -3.0809499374472027e-13 -2.786969873630474e-13 -111.16500091552734 49.62070083618164 46.96459197998047 28.156597137451172 -39.489200592041016 -83.01129913330078 5.764549732208252 -54.20219802856445 11.237698554992676 5.071409958645745e-10 7.387159772775931e-10 -2.777309979218323e-11 8.735809298165975e-10 1.2391299097913588e-09 -3.127960043758371e-11 5.07132946747646e-10 7.387049860696493e-10 -2.777140149790025e-11 -7.730909824371338 5.474879741668701 -0.4173140823841095 5.071419950652967e-10 7.387159772775931e-10 -2.7775500649473983e-11 -2.9055399894714355 0.9651829600334167 -0.10290199518203735 5.07132946747646e-10 7.387149780768709e-10 -2.777679995735749e-11 -10.27859878540039 0.73180091381073 -0.025912316516041756 5.071419950652967e-10 7.387180311901886e-10 -2.7787099010634364e-11 -2.221669912338257 -0.733487069606781 0.208919957280159 -2.0321699480147914e-16 0.0 -3.8825099822884138e-19 -75.78999328613281 -58.5543098449707 -64.13969421386719 -3.7588694095611572 77.1493911743164 4.159370422363281 1.1049600839614868 -1.470909833908081 8.203289031982422 2.0321699480147914e-16 0.0 3.8825099822884138e-19 11.290099143981934 16.069398880004883 -0.23822402954101562 -0.1958559900522232 28.626201629638672 -2.759309768676758 8.112948417663574 -16.229999542236328 34.54759979248047
-5.616240002235802 52.12349923577969 45.10599981174216 12.50790023803711 27.61570167541504 9.557199478149414 -21.55499839782715 11.188499450683594 5.382449150085449 6.223258972167969 -10.193500518798828 1.6273797750473022 -8.69536018371582 17.869403839111328 -13.382598876953125 10.972600936889648 -28.579601287841797 -23.91459846496582 -0.0 0.0 -0.0 -0.0 0.0 -0.0 1.5958299948420213e-13 -4.166379968893047e-13 1.4436099071788583e-13 34.494102478027344 -23.030099868774414 60.51850128173828 -8.85768985748291 -3.475870132446289 15.67590045928955 -0.9501060247421265 26.545900344848633 4.026149749755859 2.6838300470899412e-09 1.0012099593836865e-08 -2.1601598287901425e-10 4.633079697669018e-09 1.702809981907194e-08 -4.2869299776704395e-10 2.6838300470899412e-09 1.0012099593836865e-08 -2.1601700983531202e-10 7.730909824371338 5.474879741668701 0.4173140823841095 2.6838300470899412e-09 1.0012099593836865e-08 -2.1601398447756992e-10 2.9055399894714355 0.9651829600334167 0.10290199518203735 2.6838300470899412e-09 1.0012099593836865e-08 -2.160119999539134e-10 10.27859878540039 0.73180091381073 0.025912316516041756 2.6838198330381147e-09 1.0012099593836865e-08 -2.1600100874596961e-10 2.221669912338257 -0.733487069606781 -0.208919957280159 1.5944099610466084e-13 -4.166379968893047e-13 1.440790032853495e-13 -111.15899658203125 49.64260482788086 46.996395111083984 28.15770149230957 -39.48209762573242 -82.99869537353516 5.762229919433594 -54.195308685302734 11.23490047454834 1.1530300048079312e-09 1.0213299095340744e-09 2.1781700054734898e-10 1.9732497857916087e-09 1.6371299871309475e-09 4.268159714548858e-10 1.153019901778407e-09 1.0213200285491553e-09 2.178189850710055e-10 -7.730909824371338 5.474879741668701 -0.4173140823841095 1.1530300048079312e-09 1.0213299095340744e-09 2.1780800774084952e-10 -2.9055399894714355 0.9651829600334167 -0.10290199518203735 1.153019901778407e-09 1.0213200285491553e-09 2.1780999226450604e-10 -10.27859878540039 0.73180091381073 -0.025912316516041756 1.1530300048079312e-09 1.0213299095340744e-09 2.1780099945800657e-10 -2.221669912338257 -0.733487069606781 0.208919957280159 -2.0321699480147914e-16 0.0 -3.8825099822884138e-19 -75.95249938964844 -58.602195739746094 -64.29850006103516 -3.8029696941375732 77.27169799804688 4.206399440765381 1.1046900749206543 -1.5432300567626953 8.157549858093262 2.0321699480147914e-16 0.0 3.8825099822884138e-19 11.253900527954102 16.199499130249023 -0.2919951379299164 -0.19850701093673706 28.378402709960938 -2.7521400451660156 8.07400894165039 -16.160202026367188 34.58749771118164
